<svg xmlns="http://www.w3.org/2000/svg" viewBox="0 0 400 320" role="img" aria-hidden="true">
  <rect width="400" height="320" fill="transparent"/>
  <!-- shelves -->
  <rect x="40" y="60" width="320" height="12" rx="2" fill="#c5cee8"/>
  <rect x="40" y="100" width="320" height="12" rx="2" fill="#c5cee8"/>
  <rect x="40" y="140" width="320" height="12" rx="2" fill="#c5cee8"/>
  <rect x="55" y="72" width="28" height="24" rx="3" fill="#7ec8e3"/>
  <rect x="95" y="72" width="28" height="24" rx="3" fill="#5bb5d9"/>
  <rect x="135" y="72" width="28" height="24" rx="3" fill="#7ec8e3"/>
  <rect x="250" y="72" width="28" height="24" rx="3" fill="#5bb5d9"/>
  <rect x="290" y="72" width="28" height="24" rx="3" fill="#7ec8e3"/>
  <!-- male pharmacist -->
  <ellipse cx="140" cy="268" rx="45" ry="12" fill="#e8e8e8"/>
  <rect x="105" y="175" width="70" height="95" rx="8" fill="#fff" stroke="#1a367c" stroke-width="2"/>
  <circle cx="140" cy="155" r="28" fill="#f5d0b0"/>
  <rect x="118" y="130" width="44" height="30" rx="14" fill="#4a3728"/>
  <rect x="125" y="200" width="30" height="8" rx="2" fill="#1a367c"/>
  <!-- female pharmacist -->
  <ellipse cx="260" cy="268" rx="45" ry="12" fill="#e8e8e8"/>
  <rect x="225" y="175" width="70" height="95" rx="8" fill="#fff" stroke="#1a367c" stroke-width="2"/>
  <circle cx="260" cy="155" r="28" fill="#f5d0b0"/>
  <path d="M232 130 Q260 115 288 130 L288 145 Q260 160 232 145 Z" fill="#5c3d2e"/>
  <rect x="245" y="200" width="30" height="8" rx="2" fill="#1a367c"/>
</svg>
